<svg xmlns="http://www.w3.org/2000/svg" viewBox="0 0 660 460">
  <defs>
    <linearGradient id="bg" x1="0" y1="0" x2="0" y2="1">
      <stop offset="0" stop-color="#141a26"/>
      <stop offset="1" stop-color="#0c1018"/>
    </linearGradient>
  </defs>
  <rect width="660" height="460" fill="url(#bg)"/>
  <!-- safe waveform (teal) -->
  <g fill="#46d4b1">
    <rect x="40"  y="200" width="14" height="60"  rx="7"/>
    <rect x="68"  y="170" width="14" height="120" rx="7"/>
    <rect x="96"  y="210" width="14" height="40"  rx="7"/>
    <rect x="124" y="150" width="14" height="160" rx="7"/>
    <rect x="152" y="190" width="14" height="80"  rx="7"/>
    <rect x="180" y="165" width="14" height="130" rx="7"/>
    <rect x="208" y="205" width="14" height="50"  rx="7"/>
    <rect x="236" y="180" width="14" height="100" rx="7"/>
  </g>
  <!-- adversarial spikes (amber → red) -->
  <g>
    <rect x="284" y="140" width="14" height="180" rx="7" fill="#f4b860"/>
    <rect x="312" y="100" width="14" height="260" rx="7" fill="#f4b860"/>
    <rect x="340" y="60"  width="14" height="340" rx="7" fill="#e0694f"/>
    <rect x="368" y="120" width="14" height="220" rx="7" fill="#e0694f"/>
    <rect x="396" y="40"  width="14" height="380" rx="7" fill="#d64545"/>
    <rect x="424" y="90"  width="14" height="280" rx="7" fill="#d64545"/>
    <rect x="452" y="140" width="14" height="180" rx="7" fill="#e0694f"/>
  </g>
  <!-- broken padlock -->
  <g transform="translate(530,120)">
    <path d="M14 60 V36 a36 36 0 0 1 64 -22" fill="none" stroke="#f4b860" stroke-width="14" stroke-linecap="round"/>
    <rect x="0" y="60" width="92" height="76" rx="14" fill="#f4b860"/>
    <circle cx="46" cy="92" r="11" fill="#141a26"/>
    <rect x="41" y="92" width="10" height="26" rx="5" fill="#141a26"/>
  </g>
  <text x="40" y="404" font-family="Helvetica, Arial, sans-serif" font-size="40" font-weight="700" fill="#d9f7ec" letter-spacing="6">AUDIO JAILBREAK</text>
  <text x="40" y="436" font-family="Helvetica, Arial, sans-serif" font-size="21" fill="#8fa3b3" letter-spacing="3">BENCHMARKING LARGE AUDIO-LANGUAGE MODELS</text>
</svg>
